<svg xmlns="http://www.w3.org/2000/svg" width="32" height="32" viewBox="0 0 32 32">
	<style>
		@media (prefers-color-scheme: dark) {
			.cls-1{fill:#ff0000;}.cls-2{fill:#ff0000;}
		}
		@media (prefers-color-scheme: light) {
			.cls-1{fill:#ff0000;}.cls-2{fill:#ff0000;}
		}
	</style>
	<rect class="cls-1" width="32" height="32"/>
	<path class="cls-2" d="M27.36,17.9c-1.5,6.44-6.12,9-10.65,9H14.07V16.56h1c3.51,0,5.87,3.22,6.06,6.18h.6v-13h-.6c-.19,3-2.55,6.18-6.06,6.18h-1v-10h3.06c4.21,0,8,2.58,9.47,9.34h.63l-2-11.67h-.64C22.9,4.83,21,5.24,17.13,5.24H4v.64c2.71.09,3.51.89,3.51,5v11c0,4.12-.8,4.91-3.51,5v.64H17.26c4.14,0,6.4.41,8.09,1.69H26L28,17.9Z"/>
</svg>
